<svg width="28" height="28" viewBox="0 0 28 28" fill="none" xmlns="http://www.w3.org/2000/svg">
<path fill-rule="evenodd" clip-rule="evenodd" d="M16.1385 23.7923C21.1901 22.7969 25 18.3434 25 13C25 6.92487 20.0751 2 14 2C7.92487 2 3 6.92487 3 13C3 18.3437 6.81033 22.7974 11.8622 23.7924L13.5696 26.3535C13.7745 26.6608 14.2261 26.6608 14.431 26.3535L16.1385 23.7923Z" fill="#6A93B0"/>
<path d="M16.1385 23.7923L15.9935 23.0564L15.6875 23.1167L15.5145 23.3762L16.1385 23.7923ZM11.8622 23.7924L12.4863 23.3764L12.3132 23.1168L12.0072 23.0565L11.8622 23.7924ZM13.5696 26.3535L12.9456 26.7695H12.9456L13.5696 26.3535ZM14.431 26.3535L13.807 25.9375L14.431 26.3535ZM16.2835 24.5281C21.6798 23.4649 25.75 18.7086 25.75 13H24.25C24.25 17.9782 20.7003 22.129 15.9935 23.0564L16.2835 24.5281ZM25.75 13C25.75 6.51065 20.4893 1.25 14 1.25V2.75C19.6609 2.75 24.25 7.33908 24.25 13H25.75ZM14 1.25C7.51065 1.25 2.25 6.51065 2.25 13H3.75C3.75 7.33908 8.33908 2.75 14 2.75V1.25ZM2.25 13C2.25 18.7089 6.32058 23.4653 11.7173 24.5283L12.0072 23.0565C7.30007 22.1294 3.75 17.9785 3.75 13H2.25ZM11.2382 24.2084L12.9456 26.7695L14.1937 25.9375L12.4863 23.3764L11.2382 24.2084ZM12.9456 26.7695C13.4473 27.5222 14.5533 27.5222 15.0551 26.7695L13.807 25.9375C13.899 25.7995 14.1017 25.7995 14.1937 25.9375L12.9456 26.7695ZM15.0551 26.7695L16.7626 24.2083L15.5145 23.3762L13.807 25.9375L15.0551 26.7695Z" fill="white"/>
<path fill-rule="evenodd" clip-rule="evenodd" d="M14 16.9995C16.2091 16.9995 18 15.2087 18 12.9995C18 10.7904 16.2091 8.99951 14 8.99951C11.7909 8.99951 10 10.7904 10 12.9995C10 15.2087 11.7909 16.9995 14 16.9995Z" fill="white"/>
</svg>
