<?xml version="1.0" standalone="no"?>
<!DOCTYPE svg PUBLIC "-//W3C//DTD SVG 20010904//EN"
 "http://www.w3.org/TR/2001/REC-SVG-20010904/DTD/svg10.dtd">
<svg version="1.0" xmlns="http://www.w3.org/2000/svg"
 width="1000.000000pt" height="1000.000000pt" viewBox="0 0 1000.000000 1000.000000"
 preserveAspectRatio="xMidYMid meet">
<metadata>
Created by potrace 1.11, written by Peter Selinger 2001-2013
</metadata>
<g transform="translate(0.000000,1000.000000) scale(0.100000,-0.100000)"
fill="#000000" stroke="none">
<path d="M4812 8981 l0 -945 -29 -20 c-15 -12 -66 -51 -112 -88 -46 -37 -87
-66 -90 -63 -4 2 -5 42 -4 89 2 76 0 86 -15 87 -23 1 -1523 1 -1543 0 -14 -1
-16 -70 -16 -740 0 -621 -2 -743 -14 -759 -39 -53 -211 -262 -215 -262 -3 0
-5 17 -4 38 1 20 2 51 1 67 l-1 30 -780 0 c-579 0 -783 -3 -788 -12 -5 -8 -8
-6286 -3 -6384 1 -14 78 -16 786 -16 l785 0 0 71 c1 39 1 707 2 1484 0 776 3
1413 7 1413 3 1 17 3 31 4 42 3 133 15 163 21 18 4 27 1 28 -8 0 -7 1 -315 1
-684 l1 -672 787 0 787 0 1 1062 c0 583 1 1070 1 1081 1 13 30 42 78 80 43 33
94 75 115 94 l38 33 1 -108 c0 -60 0 -166 0 -236 l0 -128 789 0 788 0 0 1168
0 1169 51 94 c28 52 77 147 108 212 32 64 60 117 63 117 3 0 5 -207 5 -460 l0
-460 786 0 787 0 0 1369 0 1368 -673 0 c-370 0 -677 3 -683 7 -5 3 -13 21 -16
40 -7 39 -53 155 -68 174 -8 9 136 12 716 12 l726 0 0 800 c0 633 -3 800 -12
801 -16 1 -1539 1 -1553 0 -7 -1 -10 -248 -10 -726 l0 -724 -25 16 c-45 30
-104 60 -152 78 -40 15 -48 22 -49 44 0 14 0 312 0 662 0 349 -4 640 -7 645
-4 6 -298 10 -789 9 l-781 0 0 -944z m1632 -1124 c26 -39 66 -177 72 -250 9
-92 9 -155 0 -243 -6 -69 -10 -91 -21 -144 -3 -14 -7 -36 -10 -50 -8 -46 -88
-300 -92 -296 -3 2 -5 211 -4 463 0 633 -3 566 21 553 11 -6 26 -21 34 -33z
m-1631 -741 c-1 -613 -2 -656 -19 -682 -10 -16 -21 -31 -25 -34 -3 -3 -45 -58
-93 -122 -48 -65 -91 -118 -94 -118 -4 0 -7 327 -6 727 l1 726 28 21 c77 58
191 135 200 136 7 0 9 -223 8 -654z m1802 -433 c-1 -258 -3 -313 -16 -338 -48
-93 -202 -345 -207 -340 -2 2 -4 135 -4 295 l0 290 30 48 c41 66 128 226 160
295 14 31 29 57 32 57 3 0 5 -138 5 -307z m-3612 -1660 c-1 -786 -2 -1439 -2
-1452 -1 -23 -3 -24 -63 -17 -35 3 -86 11 -114 17 l-51 12 -1 1261 c0 1108 2
1264 15 1291 23 45 204 315 211 315 4 0 6 -642 5 -1427z m1809 307 c0 -567 -2
-1033 -3 -1034 -65 -50 -222 -156 -226 -152 -4 4 -8 1822 -4 1923 1 12 46 77
102 145 56 68 107 131 113 140 5 9 12 15 14 13 2 -2 4 -468 4 -1035z"/>
</g>
</svg>
