<?xml version="1.0" standalone="no"?>
<!DOCTYPE svg PUBLIC "-//W3C//DTD SVG 20010904//EN"
 "http://www.w3.org/TR/2001/REC-SVG-20010904/DTD/svg10.dtd">
<svg version="1.0" xmlns="http://www.w3.org/2000/svg"
 width="1024.000000pt" height="1024.000000pt" viewBox="0 0 1024.000000 1024.000000"
 preserveAspectRatio="xMidYMid meet">
<metadata>
Created by potrace 1.11, written by Peter Selinger 2001-2013
</metadata>
<g transform="translate(0.000000,1024.000000) scale(0.100000,-0.100000)"
fill="#000000" stroke="none">
<path d="M5025 8845 c-22 -12 -96 -55 -165 -95 -68 -40 -138 -81 -155 -90 -16
-9 -160 -93 -320 -185 -159 -92 -304 -176 -322 -186 -17 -10 -50 -29 -72 -43
-22 -15 -43 -26 -45 -26 -2 0 -50 -27 -105 -60 -56 -33 -104 -60 -106 -60 -3
0 -24 -11 -46 -26 -22 -14 -55 -33 -72 -43 -136 -77 -760 -438 -790 -457 -59
-39 -97 -106 -97 -174 0 -115 118 -259 283 -346 37 -19 67 -32 67 -28 0 3 6 2
13 -3 48 -38 272 -41 384 -5 55 17 272 139 828 462 83 49 168 98 190 110 22
12 157 90 299 172 142 83 271 154 285 157 l26 7 2 472 1 472 -21 -1 c-12 -1
-40 -11 -62 -24z"/>
<path d="M5163 8401 l0 -470 30 -10 c16 -6 63 -31 105 -56 41 -25 76 -45 78
-45 2 0 128 -72 278 -160 151 -88 294 -171 318 -184 24 -13 153 -88 288 -166
135 -79 270 -156 300 -173 30 -17 71 -41 90 -54 19 -12 39 -23 43 -23 5 0 21
-8 35 -19 15 -10 47 -29 72 -43 25 -14 126 -72 225 -130 99 -58 200 -116 225
-130 25 -14 101 -58 170 -98 136 -79 508 -294 552 -319 16 -9 28 -18 28 -21 0
-3 -59 -39 -131 -80 -73 -41 -150 -86 -173 -99 -22 -13 -111 -63 -196 -112
-85 -49 -162 -93 -170 -99 -15 -9 -68 -40 -505 -292 -137 -80 -295 -171 -350
-203 -55 -32 -113 -66 -130 -75 -44 -25 -368 -212 -385 -222 -14 -9 -120 49
-645 349 -33 19 -68 37 -77 40 -10 3 -18 9 -18 14 0 5 -5 9 -11 9 -6 0 -24 9
-39 20 -16 11 -31 17 -33 13 -7 -14 -2 -2771 5 -2779 4 -4 13 -2 20 3 7 6 56
35 108 65 52 30 155 90 229 133 74 42 151 86 170 97 143 80 271 161 272 171 0
7 1 213 1 460 l1 447 106 61 c58 34 120 69 136 79 17 9 176 101 355 205 179
103 339 195 355 204 17 9 41 24 55 32 14 9 176 103 360 209 449 259 1074 619
1185 684 50 29 126 73 170 99 44 25 93 59 109 76 53 55 54 71 53 506 -2 435
-1 427 -60 485 -20 20 -420 257 -616 365 -20 11 -101 58 -181 104 -380 221
-500 291 -560 325 -36 20 -72 41 -80 46 -8 5 -53 32 -100 59 -238 137 -334
191 -342 191 -4 0 -8 5 -8 10 0 6 -4 10 -10 10 -5 0 -76 39 -157 86 -81 47
-204 119 -273 159 -69 40 -146 84 -171 98 -25 14 -139 80 -254 146 -114 67
-212 121 -216 121 -5 0 -9 4 -9 9 0 5 -6 11 -12 13 -11 3 -158 85 -267 149
-168 99 -300 171 -322 176 l-26 5 0 -471z"/>
<path d="M5138 7438 c-6 -15 -2 -328 5 -328 15 0 277 152 277 160 0 8 -68 52
-155 100 -22 12 -59 33 -82 47 -24 14 -44 23 -45 21z"/>
<path d="M4927 7325 l-108 -63 84 -50 c82 -49 143 -82 149 -82 2 0 3 59 3 130
0 81 -4 130 -10 129 -5 -1 -59 -30 -118 -64z"/>
<path d="M5440 7184 c-102 -58 -206 -118 -223 -130 -19 -12 -13 -17 103 -82
51 -28 93 -52 145 -83 l35 -21 0 171 c0 94 -3 171 -7 171 -5 -1 -28 -12 -53
-26z"/>
<path d="M5578 7098 c-2 -51 -2 -125 0 -165 l3 -72 47 26 c26 14 63 35 82 46
19 11 51 29 70 39 93 51 95 46 -37 122 -65 37 -128 74 -140 82 l-22 16 -3 -94z"/>
<path d="M4592 7129 c-46 -27 -88 -49 -94 -49 -24 0 3 -28 58 -59 32 -18 74
-42 92 -52 37 -22 34 -33 34 109 0 51 -1 94 -3 97 -2 2 -42 -19 -87 -46z"/>
<path d="M4763 7045 c0 -58 3 -105 7 -105 11 0 169 91 175 100 4 7 -162 110
-177 110 -3 0 -5 -47 -5 -105z"/>
<path d="M4380 6854 l0 -135 58 32 c31 18 85 49 120 70 l63 36 -38 23 c-21 13
-63 36 -93 53 -30 17 -64 36 -75 44 -11 7 -23 13 -27 13 -5 0 -8 -61 -8 -136z"/>
<path d="M5134 6795 c0 -102 2 -185 5 -185 4 0 67 35 142 78 74 42 147 83 162
91 l27 14 -81 49 c-44 26 -82 48 -83 48 -2 0 -39 20 -82 45 -44 25 -82 45 -85
45 -3 0 -5 -83 -5 -185z"/>
<path d="M5855 6926 c-77 -47 -155 -92 -198 -114 -33 -17 -33 -17 68 -71 33
-18 65 -36 70 -41 6 -4 40 -24 78 -44 75 -41 68 -45 68 49 0 192 -2 265 -8
264 -5 0 -39 -20 -78 -43z"/>
<path d="M4162 6881 l-83 -49 83 -47 c46 -26 86 -50 91 -52 4 -2 7 41 7 96 0
56 -3 101 -7 100 -5 0 -45 -22 -91 -48z"/>
<path d="M4923 6857 c-100 -59 -119 -73 -105 -81 9 -5 65 -38 125 -72 83 -49
107 -59 108 -46 4 74 3 256 -1 262 -3 4 -60 -24 -127 -63z"/>
<path d="M5580 6710 c-1 -11 -1 -74 -1 -140 0 -66 0 -133 1 -149 l0 -30 137
79 c157 91 164 97 137 107 -10 4 -64 34 -119 66 -155 91 -155 91 -155 67z"/>
<path d="M5480 6709 c-8 -5 -50 -29 -93 -54 -43 -25 -80 -45 -82 -45 -3 0 -25
-13 -50 -29 l-46 -29 142 -81 c78 -45 144 -80 146 -78 2 2 2 76 1 164 -3 139
-5 159 -18 152z"/>
<path d="M4550 6640 c-47 -28 -104 -60 -127 -72 -47 -24 -52 -33 -25 -42 9 -3
24 -10 32 -16 28 -18 207 -120 212 -120 2 0 3 68 3 150 0 83 -2 150 -5 150 -3
0 -43 -23 -90 -50z"/>
<path d="M3919 6679 c-2 -5 -5 -199 -3 -199 0 0 40 22 88 49 l88 49 -74 42
c-40 24 -79 47 -85 53 -7 5 -14 8 -14 6z"/>
<path d="M4762 6515 c1 -110 3 -123 17 -115 9 4 58 33 109 63 l93 54 -63 36
c-35 19 -84 47 -110 61 l-47 26 1 -125z"/>
<path d="M5005 6486 c-23 -10 -581 -329 -675 -386 -26 -15 -404 -234 -425
-246 -11 -6 -107 -61 -213 -123 -106 -61 -207 -120 -225 -130 -85 -49 -794
-459 -1082 -626 -55 -32 -115 -66 -133 -76 -46 -27 -81 -47 -222 -129 -69 -40
-143 -83 -165 -95 -209 -119 -345 -201 -369 -223 -59 -56 -60 -60 -61 -492 -1
-235 2 -407 8 -425 22 -67 55 -96 213 -186 119 -69 401 -232 414 -240 16 -10
274 -159 695 -401 149 -86 481 -278 739 -427 257 -149 471 -271 474 -271 3 0
13 -6 21 -14 9 -8 39 -26 66 -41 28 -14 65 -35 83 -46 18 -11 124 -72 235
-136 111 -64 219 -127 239 -140 21 -12 39 -23 41 -23 2 0 78 -43 168 -96 90
-53 181 -105 201 -115 73 -37 68 -71 65 453 l-2 471 -30 10 c-16 6 -77 38
-135 72 -58 34 -170 99 -250 145 -292 168 -768 443 -815 471 -16 10 -41 24
-55 32 -14 7 -198 114 -410 237 -212 122 -405 234 -430 248 -25 14 -184 106
-355 205 -170 100 -320 185 -332 191 -13 6 -23 13 -23 16 0 3 26 20 58 38 31
18 77 44 101 58 80 46 354 205 461 267 58 33 137 79 175 102 39 23 77 44 85
48 8 4 29 15 45 26 17 10 107 62 200 116 94 54 224 129 290 167 66 39 145 84
175 100 30 17 66 38 80 47 14 10 75 45 135 80 61 34 117 66 125 71 46 28 152
90 155 90 2 0 76 43 165 95 89 52 164 95 166 95 2 0 44 25 94 55 50 30 93 55
95 55 2 0 46 25 97 56 126 76 157 114 160 191 1 19 5 29 9 22 4 -6 5 -25 2
-41 -2 -17 -1 -29 4 -27 21 9 323 182 321 184 -17 14 -308 175 -317 175 -12 0
-13 4 -15 70 -1 44 0 46 45 70 174 96 279 156 279 160 0 6 -138 83 -157 88 -7
2 -13 8 -13 13 0 5 -6 9 -12 9 -7 0 -38 16 -68 34 -30 19 -58 33 -61 30 -4 -2
-6 -23 -5 -47 l3 -42 -13 32 c-14 34 -49 63 -74 63 -8 -1 -29 -7 -45 -14z
m130 -125 c3 -5 2 -12 -3 -15 -5 -3 -9 1 -9 9 0 17 3 19 12 6z m2 -50 c0 -11
-5 -18 -9 -15 -4 3 -5 11 -1 19 7 21 12 19 10 -4z m3 -151 c0 -5 -2 -10 -4
-10 -3 0 -8 5 -11 10 -3 6 -1 10 4 10 6 0 11 -4 11 -10z m0 -180 c0 -5 -2 -10
-4 -10 -3 0 -8 5 -11 10 -3 6 -1 10 4 10 6 0 11 -4 11 -10z m-5 -99 c3 -5 2
-12 -3 -15 -5 -3 -9 1 -9 9 0 17 3 19 12 6z m2 -50 c0 -11 -5 -18 -9 -15 -4 3
-5 11 -1 19 7 21 12 19 10 -4z"/>
<path d="M5785 6419 c-77 -44 -145 -86 -152 -92 -9 -9 23 -32 144 -100 85 -48
157 -86 160 -84 2 3 4 67 4 143 0 210 0 214 -8 213 -5 0 -71 -36 -148 -80z"/>
<path d="M4122 6401 c-82 -49 -90 -57 -61 -66 12 -4 46 -23 75 -41 29 -19 57
-34 61 -34 12 0 10 173 -2 176 -5 1 -38 -15 -73 -35z"/>
<path d="M4380 6260 c0 -44 2 -80 5 -80 10 0 135 72 135 79 0 3 -9 11 -20 16
-10 6 -42 22 -70 38 l-50 27 0 -80z"/>
<path d="M5465 6236 c-11 -7 -73 -44 -138 -81 -87 -50 -115 -71 -107 -79 6 -6
35 -24 65 -41 30 -16 88 -49 130 -72 42 -24 78 -43 81 -43 2 0 4 74 4 165 0
91 -3 165 -7 164 -5 0 -17 -6 -28 -13z"/>
<path d="M5580 6080 l0 -169 123 71 c67 39 132 77 145 83 26 14 22 18 -48 57
-25 14 -84 48 -132 76 l-88 51 0 -169z"/>
<path d="M3915 6030 c0 -66 1 -120 3 -120 4 0 67 35 150 84 54 32 72 56 42 56
-5 0 -47 23 -94 50 -47 28 -88 50 -93 50 -5 0 -8 -54 -8 -120z"/>
<path d="M5785 5938 c-77 -44 -153 -88 -170 -98 -76 -43 -257 -147 -320 -183
-38 -22 -71 -41 -73 -42 -2 -2 97 -60 208 -123 19 -10 59 -33 88 -51 29 -17
57 -31 62 -31 6 0 10 -4 10 -10 0 -5 4 -10 10 -10 5 0 44 -21 87 -46 43 -25
103 -60 133 -76 30 -17 70 -39 88 -50 l32 -20 0 54 c1 56 0 681 0 736 0 17 -3
32 -7 32 -5 -1 -71 -37 -148 -82z"/>
<path d="M6893 3259 c-107 -14 -170 -42 -440 -200 -18 -10 -50 -28 -70 -40
-21 -12 -42 -25 -48 -29 -5 -4 -30 -18 -55 -32 -25 -14 -103 -59 -175 -100
-287 -166 -331 -192 -365 -210 -19 -11 -39 -24 -45 -28 -5 -4 -30 -19 -55 -32
-25 -14 -131 -75 -237 -135 -105 -61 -204 -115 -220 -120 l-28 -10 -1 -471
c-1 -408 1 -472 14 -472 15 0 127 55 152 76 8 6 38 24 65 39 28 14 66 36 85
47 19 11 222 128 450 260 455 263 520 300 628 365 40 24 74 43 76 43 2 0 55
30 117 67 63 37 141 82 174 100 33 19 74 42 90 52 17 10 122 71 235 136 113
65 216 127 228 139 75 67 83 184 20 279 -132 199 -362 306 -595 276z"/>
</g>
</svg>
